<svg xmlns="http://www.w3.org/2000/svg" width="1800" height="900" viewBox="0 0 1800 900">
  <defs>
    <linearGradient id="bg" x1="0" x2="1" y1="0" y2="1">
      <stop offset="0%" stop-color="#fef3c7"/>
      <stop offset="55%" stop-color="#fde68a"/>
      <stop offset="100%" stop-color="#fbcfe8"/>
    </linearGradient>
    <linearGradient id="glass" x1="0" x2="1" y1="0" y2="1">
      <stop offset="0%" stop-color="#fff8e1" stop-opacity="0.9"/>
      <stop offset="100%" stop-color="#ffffff" stop-opacity="0.55"/>
    </linearGradient>
  </defs>
  <rect width="1800" height="900" fill="url(#bg)"/>
  <circle cx="1450" cy="180" r="190" fill="#fecdd3" opacity="0.65"/>
  <circle cx="260" cy="680" r="240" fill="#fde68a" opacity="0.55"/>
  <rect x="300" y="180" width="1200" height="540" rx="40" fill="url(#glass)" stroke="#f59e0b" stroke-opacity="0.35" stroke-width="4"/>
  <rect x="380" y="260" width="520" height="26" rx="13" fill="#a16207" opacity="0.6"/>
  <rect x="380" y="310" width="420" height="22" rx="11" fill="#a16207" opacity="0.45"/>
  <rect x="380" y="360" width="620" height="22" rx="11" fill="#a16207" opacity="0.35"/>
  <rect x="380" y="430" width="360" height="20" rx="10" fill="#a16207" opacity="0.4"/>
  <rect x="380" y="470" width="500" height="20" rx="10" fill="#a16207" opacity="0.3"/>
  <rect x="1020" y="260" width="360" height="320" rx="28" fill="#fff" opacity="0.65"/>
  <rect x="1060" y="300" width="280" height="18" rx="9" fill="#a16207" opacity="0.5"/>
  <rect x="1060" y="340" width="220" height="16" rx="8" fill="#a16207" opacity="0.35"/>
  <rect x="1060" y="380" width="250" height="16" rx="8" fill="#a16207" opacity="0.35"/>
  <rect x="1060" y="420" width="200" height="16" rx="8" fill="#a16207" opacity="0.35"/>
  <rect x="1060" y="470" width="160" height="34" rx="17" fill="#f59e0b" opacity="0.7"/>
</svg>
